<?xml version="1.0" encoding="UTF-8"?>
<svg width="159px" height="17px" viewBox="0 0 159 17" version="1.1" xmlns="http://www.w3.org/2000/svg" xmlns:xlink="http://www.w3.org/1999/xlink">
    <!-- Generator: Sketch 51.1 (57501) - http://www.bohemiancoding.com/sketch -->
    <title>simplefolk</title>
    <desc>Created with Sketch.</desc>
    <defs>
        <polygon id="path-1" points="0 16.1072137 158.966154 16.1072137 158.966154 0.000547008547 0 0.000547008547"></polygon>
    </defs>
    <g id="Page-1" stroke="none" stroke-width="1" fill="none" fill-rule="evenodd">
        <g id="O-Consultancy" transform="translate(-761.000000, -1974.000000)">
            <g id="Clients-That-Love-Us" transform="translate(250.000000, 1730.000000)">
                <g id="simplefolk" transform="translate(511.000000, 244.000000)">
                    <g id="Page-1" transform="translate(0.000000, 0.842452)">
                        <mask id="mask-2" fill="white">
                            <use xlink:href="#path-1"></use>
                        </mask>
                        <g id="Clip-2"></g>
                        <path d="M158.84253,15.2429402 C156.743385,15.2839658 153.432615,11.7051624 151.126974,9.17388034 C150.448684,8.4545641 149.852444,7.73388034 149.358769,7.26071795 C149.913983,6.74652991 150.552615,6.0477265 151.210393,5.30789744 C152.959453,3.39336752 155.057231,1.11097436 156.806291,0.904478632 C157.072957,0.883965812 157.072957,0.555760684 156.806291,0.533880342 C156.189538,0.492854701 155.571419,0.574905983 154.954667,0.574905983 C154.254496,0.574905983 153.576205,0.596786325 152.897915,0.555760684 C152.691419,0.533880342 152.588855,0.658324786 152.670906,0.80191453 C152.754325,0.945504274 152.793983,1.13148718 152.793983,1.31610256 C152.793983,2.26242735 151.066803,3.76396581 149.997402,4.73080342 C149.811419,4.89490598 149.565265,5.16294017 149.440821,5.28601709 C149.010051,5.71815385 148.289368,6.47986325 147.816205,7.0145641 C147.795692,5.43097436 147.754667,3.72294017 147.775179,2.24191453 C147.775179,1.58413675 148.30988,0.966017094 148.967658,0.924991453 C149.235692,0.904478632 149.235692,0.574905983 148.967658,0.555760684 C147.384068,0.45182906 145.778598,0.533880342 144.196376,0.533880342 C143.98988,0.533880342 143.885949,0.658324786 143.98988,0.781401709 C144.153983,1.04806838 144.422017,1.09046154 144.750222,1.13148718 C145.142701,1.19302564 145.59535,1.21353846 145.59535,2.15986325 L145.59535,13.597812 C145.59535,14.9352479 145.532444,15.1814017 144.360479,15.4084103 C144.092444,15.4494359 144.114325,15.777641 144.380991,15.777641 C146.02612,15.840547 147.671248,15.7161026 149.317744,15.7161026 C149.544752,15.7161026 149.647316,15.4699487 149.440821,15.3865299 C149.070222,15.1814017 148.721504,15.1608889 148.434325,15.1198632 C147.980308,15.0788376 147.754667,15.037812 147.754667,13.3913162 L147.754667,8.41353846 C148.330393,8.96875214 148.926632,9.66892308 149.626803,10.4702906 C151.869538,13.0002051 154.604581,16.1072137 157.156376,16.1072137 C157.814154,16.1072137 158.430906,15.9225983 158.966974,15.5930256 L158.84253,15.2429402 Z M138.339282,12.7540513 C137.743043,14.0094359 136.528684,14.8518291 135.191248,14.8518291 C133.833299,14.8518291 132.763897,13.9670427 132.763897,12.5270427 L132.763897,2.07781197 C132.763897,1.39815385 133.216547,0.987897436 133.853812,1.02892308 L134.142359,1.04806838 C134.38988,1.06994872 134.451419,0.740376068 134.22441,0.678837607 C133.54612,0.45182906 132.763897,0.574905983 132.022701,0.574905983 L129.205607,0.574905983 C129.019624,0.574905983 128.896547,0.719863248 128.978598,0.842940171 C129.081162,1.11097436 129.390222,1.17251282 129.740308,1.19302564 C130.130051,1.23405128 130.604581,1.27507692 130.604581,2.22140171 L130.604581,13.5772991 C130.604581,14.4825983 130.398085,15.3249915 129.431248,15.3673846 C129.163214,15.3673846 129.144068,15.7161026 129.410735,15.7366154 C130.151932,15.777641 130.891761,15.6545641 131.673983,15.6545641 C132.434325,15.6545641 133.175521,15.6955897 133.937231,15.6750769 C134.67706,15.6545641 135.418256,15.6545641 136.137573,15.6545641 C136.940308,15.6545641 137.743043,15.6545641 138.564923,15.7366154 C138.605949,15.037812 138.667487,14.2350769 138.771419,13.2272137 C138.771419,13.1041368 138.791932,12.9810598 138.812444,12.8566154 C138.85347,12.6514872 138.462359,12.5680684 138.339282,12.7540513 L138.339282,12.7540513 Z M121.745778,8.55712821 C121.745778,4.97832479 119.604239,1.152 115.717744,1.152 C112.055521,1.152 109.998769,4.032 109.998769,7.54926496 C109.998769,11.1294359 112.199111,15.037812 116.107487,15.037812 C119.769709,15.037812 121.745778,12.034735 121.745778,8.55712821 L121.745778,8.55712821 Z M123.823043,8.59815385 C123.823043,12.8361026 120.633983,15.1198632 116.807658,15.9841368 C116.498598,16.0456752 115.779282,16.066188 115.429197,16.066188 C112.014496,16.066188 107.817573,12.1783248 107.817573,8.57764103 C107.817573,3.72294017 109.812786,1.23405128 114.976547,0.123623932 C115.347145,0.0415726496 115.799795,0.000547008547 116.190906,0.000547008547 C121.373812,0.000547008547 123.823043,4.58721368 123.823043,8.59815385 L123.823043,8.59815385 Z M101.261675,0.555760684 L99.1009915,0.555760684 C97.3314188,0.555760684 95.582359,0.555760684 93.8141538,0.492854701 C93.5871453,0.492854701 93.4845812,0.740376068 93.7115897,0.842940171 C93.9782564,1.00704274 94.2668034,1.09046154 94.5129573,1.152 C94.945094,1.2545641 95.2746667,1.31610256 95.2746667,2.11883761 L95.2746667,13.5157607 C95.2746667,14.8518291 95.233641,15.0993504 94.0397949,15.3249915 C93.7731282,15.3673846 93.793641,15.6750769 94.0603077,15.6750769 C94.9040684,15.7161026 95.7683419,15.7366154 96.6121026,15.7366154 C97.4339829,15.7366154 98.2777436,15.7161026 99.1009915,15.6750769 L99.0599658,15.3249915 C97.6815043,15.3865299 97.4339829,14.7697778 97.4339829,13.4528547 L97.4339829,8.18652991 C97.6404786,8.20704274 97.7635556,8.20704274 97.9891966,8.20704274 C98.2777436,8.20704274 98.5457778,8.18652991 98.8329573,8.16601709 C99.1009915,8.14550427 99.3471453,8.12499145 99.5946667,8.12499145 C100.664068,8.12499145 101.280821,8.47507692 101.261675,9.64704274 C101.261675,9.85353846 101.693812,9.8945641 101.734838,9.6894359 C101.939966,8.74311111 102.104068,7.73388034 102.145094,6.72601709 C102.145094,6.54140171 101.89894,6.47986325 101.734838,6.60294017 C101.58988,6.76841026 101.178256,7.07610256 100.973128,7.07610256 L97.4339829,7.07610256 L97.4339829,1.80977778 C97.8661197,1.80977778 98.113641,1.74823932 98.5457778,1.68670085 C99.039453,1.62516239 99.5126154,1.56362393 99.965265,1.56362393 C101.034667,1.56362393 101.712957,1.97524786 101.712957,3.14721368 C101.712957,3.31131624 101.89894,3.37422222 102.083556,3.29080342 C102.536205,2.96259829 102.577231,1.97524786 102.618256,1.19302564 C102.638769,0.924991453 102.659282,0.658324786 102.681162,0.492854701 L102.35159,0.328752137 C102.001504,0.473709402 101.630906,0.555760684 101.261675,0.555760684 L101.261675,0.555760684 Z M88.0596239,13.0002051 C87.7505641,14.2145641 86.8247521,14.8723419 85.6514188,14.8723419 C84.7474872,14.8723419 83.6356923,14.5236239 83.1433846,13.6798632 L83.1433846,8.12499145 L83.4921026,8.12499145 C84.253812,8.12499145 86.1656068,8.10447863 86.5156923,8.4545641 C86.6401368,8.55712821 86.7016752,8.84567521 86.7837265,9.09182906 C86.845265,9.25729915 86.9273162,9.50345299 87.0927863,9.66892308 C87.2568889,9.792 87.5030427,9.73046154 87.5030427,9.56499145 C87.5454359,9.05080342 87.6069744,8.51610256 87.6890256,8.00191453 C87.7505641,7.5902906 87.8121026,7.15815385 87.8531282,6.74652991 C87.873641,6.62345299 87.7095385,6.52088889 87.5454359,6.54140171 C87.4004786,6.56191453 87.1543248,6.68499145 86.8657778,6.8094359 C86.5977436,6.93251282 86.2900513,7.05558974 86.1464615,7.05558974 L83.1215043,7.05558974 L83.1215043,1.56362393 C83.3485128,1.60464957 83.328,1.56362393 83.553641,1.56362393 C83.842188,1.56362393 84.1498803,1.56362393 84.4179145,1.54311111 C84.6640684,1.52123077 84.9115897,1.52123077 85.1372308,1.52123077 C86.2490256,1.52123077 87.0517607,1.80977778 87.1543248,3.06516239 C87.1748376,3.2702906 87.5864615,3.2702906 87.6274872,3.06516239 C87.648,2.94208547 87.6890256,2.85866667 87.7095385,2.75610256 C87.873641,2.03678632 88.0391111,1.2545641 88.1211624,0.492854701 C88.1416752,0.349264957 87.9556923,0.267213675 87.7710769,0.328752137 C87.6274872,0.410803419 87.4620171,0.473709402 87.4004786,0.473709402 L79.5016752,0.473709402 C79.2746667,0.473709402 79.1721026,0.699350427 79.3785983,0.80191453 C79.645265,0.987897436 79.933812,1.09046154 80.2209915,1.152 C80.6121026,1.2545641 80.9827009,1.31610256 80.9827009,2.05729915 L80.9827009,13.5157607 C80.9827009,14.4402051 80.8172308,15.263453 79.7888547,15.3044786 C79.522188,15.3044786 79.5016752,15.6545641 79.7683419,15.6545641 C80.7556923,15.7571282 81.9085128,15.777641 83.0599658,15.777641 C83.6767179,15.777641 84.3153504,15.7571282 84.9526154,15.7571282 L87.5659487,15.7571282 L87.9351795,15.6545641 C88.0391111,15.6545641 88.1211624,15.5930256 88.1416752,15.5109744 L88.2032137,15.0172991 C88.285265,14.3581538 88.3673162,13.7208889 88.5327863,13.0836239 C88.573812,12.8771282 88.1006496,12.7950769 88.0596239,13.0002051 L88.0596239,13.0002051 Z M73.7266325,12.7540513 C73.1303932,14.0094359 71.9160342,14.8518291 70.5785983,14.8518291 C69.2206496,14.8518291 68.1512479,13.9670427 68.1512479,12.5270427 L68.1512479,2.07781197 C68.1512479,1.39815385 68.6038974,0.987897436 69.2425299,1.02892308 L69.5297094,1.04806838 C69.7758632,1.06994872 69.8387692,0.740376068 69.6117607,0.678837607 C68.9334701,0.45182906 68.1512479,0.574905983 67.4114188,0.574905983 L64.5929573,0.574905983 C64.4083419,0.574905983 64.2838974,0.719863248 64.3659487,0.842940171 C64.4685128,1.11097436 64.7775726,1.17251282 65.1276581,1.19302564 C65.5187692,1.23405128 65.9919316,1.27507692 65.9919316,2.22140171 L65.9919316,13.5772991 C65.9919316,14.4825983 65.7854359,15.3249915 64.8185983,15.3673846 C64.5519316,15.3673846 64.5314188,15.7161026 64.7980855,15.7366154 C65.5392821,15.777641 66.2791111,15.6545641 67.0613333,15.6545641 C67.8230427,15.6545641 68.5628718,15.6955897 69.3245812,15.6750769 C70.0644103,15.6545641 70.8056068,15.6545641 71.5249231,15.6545641 C72.3276581,15.6545641 73.1303932,15.6545641 73.9522735,15.7366154 C73.9932991,15.037812 74.0548376,14.2350769 74.1587692,13.2272137 C74.1587692,13.1041368 74.1792821,12.9810598 74.1997949,12.8566154 C74.2408205,12.6514872 73.8497094,12.5680684 73.7266325,12.7540513 L73.7266325,12.7540513 Z M54.1478291,0.514735043 L52.4808205,0.514735043 C52.0691966,0.514735043 51.6575726,0.555760684 51.2254359,0.533880342 C50.7741538,0.514735043 50.3420171,0.514735043 49.888,0.514735043 L49.4572308,0.514735043 C49.250735,0.514735043 49.1481709,0.658324786 49.2302222,0.781401709 C49.373812,1.09046154 49.7238974,1.11097436 50.0534701,1.152 C50.4445812,1.19302564 50.8562051,1.2545641 50.8562051,2.09832479 L50.8562051,13.5772991 C50.8562051,14.9352479 50.8151795,15.1403761 49.6418462,15.3673846 C49.373812,15.4084103 49.3956923,15.7161026 49.662359,15.7366154 C51.3293675,15.8186667 52.9950085,15.7571282 54.6401368,15.7571282 C54.8261197,15.7571282 54.9491966,15.6340513 54.8671453,15.5109744 C54.7235556,15.2224274 54.4350085,15.2224274 54.0644103,15.2019145 C53.8387692,15.1814017 53.5297094,15.1608889 53.3861197,15.0172991 C53.2835556,14.9133675 53.0360342,13.6388376 53.0360342,13.4323419 L53.0360342,1.60464957 C53.4271453,1.45969231 53.8797949,1.33661538 54.3324444,1.33661538 C56.2661197,1.33661538 57.376547,3.31131624 57.376547,5.12191453 C57.376547,7.11712821 56.1635556,8.31097436 54.1478291,8.31097436 C54.0028718,8.31097436 53.8592821,8.31097436 53.7362051,8.29046154 C53.4681709,8.26994872 53.3656068,8.80464957 53.6322735,8.86618803 C53.982359,8.96875214 54.4144957,9.0302906 54.8261197,9.0302906 C57.4175726,9.0302906 59.2897094,6.56191453 59.2897094,4.17558974 C59.2897094,0.842940171 56.6777436,0.514735043 54.1478291,0.514735043 L54.1478291,0.514735043 Z M41.8551795,14.4825983 C41.3615043,13.6388376 40.990906,9.64704274 40.8049231,7.26071795 C40.7638974,6.66447863 40.702359,6.10926496 40.6818462,5.82208547 C40.4972308,4.01148718 40.290735,2.18037607 40.065094,0.369777778 C40.0445812,0.185162393 39.7560342,0.142769231 39.6329573,0.287726496 C38.8917607,1.39815385 38.336547,2.61251282 37.8018462,3.76396581 L37.3902222,4.66926496 C36.8144957,5.92464957 36.2387692,7.11712821 35.6835556,8.352 C35.0244103,9.792 34.3666325,11.1909744 33.6664615,12.6309744 C33.3792821,12.0757607 33.0291966,11.3140513 32.350906,9.8945641 C30.6018462,6.27336752 28.1129573,1.04806838 27.3102222,0.267213675 C27.1461197,0.142769231 26.9396239,0.205675214 26.9204786,0.369777778 C26.8575726,0.781401709 26.7550085,1.76875214 26.6319316,2.98311111 C26.1997949,7.13764103 25.4599658,14.3581538 25.1714188,14.9352479 C25.0059487,15.2839658 24.7597949,15.3044786 24.4726154,15.3455043 C24.3481709,15.3673846 23.936547,15.4494359 23.936547,15.4275556 C23.7929573,15.5314872 23.8339829,15.7366154 24.0609915,15.7571282 C25.4599658,15.840547 26.879453,15.777641 28.2770598,15.777641 C28.545094,15.777641 28.6066325,15.5314872 28.3809915,15.4494359 C28.030906,15.2839658 27.7628718,15.1814017 27.5577436,15.0993504 L27.5782564,15.0993504 C27.0435556,14.8723419 27.0435556,14.8723419 27.0435556,13.9670427 L27.0435556,13.3708034 C27.0435556,11.4986667 27.3102222,9.46242735 27.5782564,7.5902906 C27.6808205,6.85046154 27.7833846,6.06823932 27.8449231,5.30789744 C28.4835556,6.52088889 28.6681709,7.03507692 29.2438974,8.31097436 C30.3967179,10.8408889 31.5276581,13.3708034 33.2151795,15.6545641 C33.3382564,15.7571282 33.5433846,15.7571282 33.6254359,15.6340513 C34.1409915,14.5646496 34.6346667,13.5157607 35.1283419,12.4655043 C36.2797949,10.0381538 37.4121026,7.5902906 38.6456068,5.22447863 C38.7481709,6.43883761 38.850735,6.99405128 38.9956923,8.20704274 C39.2418462,10.1831111 39.4688547,12.4860171 39.4688547,14.4402051 C39.4688547,14.7902906 39.4688547,15.1403761 39.3649231,15.4904615 C39.3238974,15.6135385 39.4278291,15.7366154 39.5919316,15.7366154 C40.9703932,15.8186667 42.3693675,15.7571282 43.7888547,15.7571282 L43.870906,15.4275556 C43.582359,15.2839658 43.2746667,15.2224274 43.0271453,15.1814017 C42.5950085,15.0993504 42.1833846,15.037812 41.8551795,14.4825983 L41.8551795,14.4825983 Z M17.7690256,15.2019145 C17.6254359,15.2019145 17.3779145,15.1403761 17.2343248,15.0788376 C17.090735,14.8518291 16.8227009,13.6798632 16.8227009,13.4118291 L16.8227009,2.07781197 C16.8227009,1.21353846 17.3368889,1.06994872 18.0780855,0.924991453 C18.3447521,0.863452991 18.3037265,0.574905983 18.0370598,0.555760684 C17.2548376,0.514735043 16.4726154,0.555760684 15.7122735,0.555760684 C14.9300513,0.555760684 14.1286838,0.514735043 13.3464615,0.574905983 C13.0989402,0.596786325 13.0989402,0.924991453 13.3464615,0.945504274 C14.0466325,1.02892308 14.6620171,1.27507692 14.6620171,2.09832479 L14.6620171,13.3297778 C14.6620171,13.8644786 14.4979145,15.1198632 13.9016752,15.1198632 C13.8196239,15.1198632 13.3259487,15.2839658 13.182359,15.2224274 C12.9553504,15.1198632 12.7297094,15.552 12.9348376,15.6545641 C13.119453,15.7366154 14.2517607,15.6545641 15.4442393,15.6545641 C16.9047521,15.6545641 18.4678291,15.7366154 18.4678291,15.7366154 C18.6948376,15.7366154 18.7768889,15.5725128 18.6332991,15.4494359 C18.3857778,15.2019145 18.0780855,15.2019145 17.7690256,15.2019145 L17.7690256,15.2019145 Z M8.14577778,11.6846496 C8.14577778,14.2966154 5.01962393,16.066188 2.67432479,16.066188 C1.50099145,16.066188 -0.000547008547,15.6135385 -0.000547008547,14.1735385 C-0.000547008547,13.7414017 0.103384615,13.3502906 0.205948718,12.9810598 C0.267487179,12.6925128 0.329025641,12.4244786 0.371418803,12.1988376 C0.412444444,11.9923419 0.863726496,12.0128547 0.843213675,12.2193504 L0.822700855,12.5489231 C0.720136752,14.0504615 2.11911111,14.9352479 3.51808547,14.9352479 C4.79261538,14.9352479 6.29552137,14.0299487 6.29552137,12.5899487 C6.29552137,11.2114872 4.87603419,9.87405128 3.43603419,8.47507692 L3.43603419,8.49558974 C1.8305641,6.97353846 0.205948718,5.40909402 0.205948718,3.72294017 C0.205948718,1.19302564 3.45654701,0.123623932 5.53381197,0.123623932 C6.23398291,0.123623932 6.9122735,0.205675214 7.57005128,0.390290598 C7.67261538,0.410803419 7.73552137,0.492854701 7.73552137,0.574905983 L7.73552137,1.31610256 C7.73552137,2.05729915 7.75603419,2.92020513 7.36492308,3.43439316 C7.22133333,3.57935043 6.93278632,3.49729915 6.93278632,3.31131624 C6.95329915,1.95336752 5.88389744,1.09046154 4.58748718,1.09046154 C3.31158974,1.09046154 2.26270085,2.03678632 2.26270085,3.39336752 C2.26270085,4.8128547 3.60013675,5.88225641 4.93757265,7.0145641 C6.52116239,8.33148718 8.14577778,9.70994872 8.14577778,11.6846496 L8.14577778,11.6846496 Z" id="Fill-1" fill="#1E3264" mask="url(#mask-2)"></path>
                    </g>
                </g>
            </g>
        </g>
    </g>
</svg>