<?xml version="1.0" encoding="UTF-8"?>
<svg width="38px" height="29px" viewBox="0 0 38 29" version="1.1" xmlns="http://www.w3.org/2000/svg" xmlns:xlink="http://www.w3.org/1999/xlink">
    <!-- Generator: Sketch 51.1 (57501) - http://www.bohemiancoding.com/sketch -->
    <title>Page 1</title>
    <desc>Created with Sketch.</desc>
    <defs></defs>
    <g id="Page-1" stroke="none" stroke-width="1" fill="none" fill-rule="evenodd">
        <g id="O-Consultancy" transform="translate(-800.000000, -2740.000000)" fill="#1279FD">
            <g id="Services-List" transform="translate(800.000000, 2299.000000)">
                <path d="M5.94657778,450.736855 C6.43213333,450.736855 6.82606667,450.344725 6.82606667,449.861391 C6.82606667,449.378058 6.43213333,448.985507 5.94657778,448.985507 C5.4606,448.985507 5.06666667,449.377638 5.06666667,449.860971 C5.06666667,450.344304 5.4606,450.736855 5.94657778,450.736855 Z M29.5555556,450.666667 L32.0888889,450.666667 C32.5550222,450.666667 32.9333333,450.290087 32.9333333,449.826087 C32.9333333,449.362087 32.5550222,448.985507 32.0888889,448.985507 L29.5555556,448.985507 C29.0898444,448.985507 28.7111111,449.362087 28.7111111,449.826087 C28.7111111,450.290087 29.0898444,450.666667 29.5555556,450.666667 Z M19.1055556,451.584159 C22.2832,451.584159 24.8688889,454.158014 24.8688889,457.321116 C24.8688889,460.484217 22.2832,463.057652 19.1055556,463.057652 C15.9274889,463.057652 13.3422222,460.484217 13.3422222,457.321116 C13.3422222,454.158014 15.9274889,451.584159 19.1055556,451.584159 Z M19.1055556,465.579391 C23.6803333,465.579391 27.4022222,461.874957 27.4022222,457.321116 C27.4022222,452.767275 23.6803333,449.06242 19.1055556,449.06242 C14.5307778,449.06242 10.8088889,452.767275 10.8088889,457.321116 C10.8088889,461.874957 14.5307778,465.579391 19.1055556,465.579391 Z M2.53333333,467.478261 L35.4666667,467.478261 L35.4666667,447.304348 L2.53333333,447.304348 L2.53333333,467.478261 Z M2.53333333,444.782609 L8.44444444,444.782609 L8.44444444,443.521739 L2.53333333,443.521739 L2.53333333,444.782609 Z M35.8888889,444.782609 L10.9777778,444.782609 L10.9777778,443.101449 C10.9777778,441.94271 10.0307333,441 8.86666667,441 L2.11111111,441 C0.947044444,441 0,441.94271 0,443.101449 L0,446.463768 C0,446.535638 0.00971111111,446.605406 0.0211111111,446.673913 C0.0143555556,446.744101 0,446.812188 0,446.884058 L0,467.898551 C0,469.05729 0.947044444,470 2.11111111,470 L35.8888889,470 C37.0529556,470 38,469.05729 38,467.898551 L38,446.884058 C38,445.725319 37.0529556,444.782609 35.8888889,444.782609 Z" id="Page-1"></path>
            </g>
        </g>
    </g>
</svg>