<?xml version="1.0" encoding="UTF-8"?>
<svg width="33px" height="24px" viewBox="0 0 33 24" version="1.1" xmlns="http://www.w3.org/2000/svg" xmlns:xlink="http://www.w3.org/1999/xlink">
    <!-- Generator: Sketch 51.1 (57501) - http://www.bohemiancoding.com/sketch -->
    <title>Page 1</title>
    <desc>Created with Sketch.</desc>
    <defs></defs>
    <g id="Page-1" stroke="none" stroke-width="1" fill="none" fill-rule="evenodd">
        <g id="O-Consultancy" transform="translate(-800.000000, -2453.000000)" fill="#1279FD">
            <g id="Services-List" transform="translate(800.000000, 2299.000000)">
                <g id="Page-1" transform="translate(0.000000, 154.000000)">
                    <path d="M21.8798854,12.11152 L30.5854463,4.16432 L30.5854463,19.82272 L21.8798854,12.11152 Z M12.9075073,13.74272 L15.0995927,15.74352 C15.4770805,16.10752 15.9728854,16.30752 16.5000805,16.30752 C17.0268732,16.30752 17.5234829,16.10752 17.9005683,15.74352 L20.0922512,13.74272 L28.9624098,21.59992 L4.03734878,21.59992 L12.9075073,13.74272 Z M11.1202756,12.11112 L2.41471463,19.82272 L2.41471463,4.16432 L11.1202756,12.11112 Z M16.5000805,13.76352 L4.05143415,2.39992 L28.947922,2.39992 L16.5000805,13.76352 Z M30.9878854,-8e-05 L2.01227561,-8e-05 C0.90275122,-8e-05 8.04878049e-05,0.89712 8.04878049e-05,1.99992 L8.04878049e-05,21.99992 C8.04878049e-05,23.10272 0.90275122,23.99992 2.01227561,23.99992 L30.9878854,23.99992 C32.0974098,23.99992 33.0000805,23.10272 33.0000805,21.99992 L33.0000805,1.99992 C33.0000805,0.89712 32.0974098,-8e-05 30.9878854,-8e-05 Z" id="Fill-1"></path>
                </g>
            </g>
        </g>
    </g>
</svg>