<?xml version="1.0" encoding="UTF-8"?>
<svg width="155px" height="38px" viewBox="0 0 155 38" version="1.1" xmlns="http://www.w3.org/2000/svg" xmlns:xlink="http://www.w3.org/1999/xlink">
    <!-- Generator: Sketch 51.1 (57501) - http://www.bohemiancoding.com/sketch -->
    <title>calmseat</title>
    <desc>Created with Sketch.</desc>
    <defs>
        <polygon id="path-1" points="0.3995 18.3333333 16.2461667 18.3333333 16.2461667 0.2725 0.3995 0.2725 0.3995 18.3333333"></polygon>
        <polygon id="path-3" points="0.6975 18.3333333 16.7475 18.3333333 16.7475 0.272166667 0.6975 0.272166667"></polygon>
        <polygon id="path-5" points="11.665 23.0603333 11.665 0.943666667 1.612 0.943666667 1.612 23.0603333 11.665 23.0603333"></polygon>
    </defs>
    <g id="Page-1" stroke="none" stroke-width="1" fill="none" fill-rule="evenodd">
        <g id="O-Consultancy" transform="translate(-1003.000000, -1965.000000)">
            <g id="Clients-That-Love-Us" transform="translate(250.000000, 1730.000000)">
                <g id="calmseat" transform="translate(753.000000, 235.000000)">
                    <g id="Page-1">
                        <g id="Group-3" transform="translate(23.333333, 18.925833)">
                            <mask id="mask-2" fill="white">
                                <use xlink:href="#path-1"></use>
                            </mask>
                            <g id="Clip-2"></g>
                            <path d="M2.9895,2.8625 C4.72783333,1.12416667 6.9095,0.2725 9.60116667,0.2725 C11.8161667,0.2725 13.7245,0.885833333 15.2911667,2.1125 C15.6328333,2.35083333 15.8028333,2.58916667 15.8028333,2.89583333 C15.8028333,3.13416667 15.7011667,3.37416667 15.4961667,3.64583333 L15.1561667,4.1575 C14.9161667,4.4975 14.6445,4.66916667 14.3378333,4.66916667 C14.1328333,4.66916667 13.8945,4.59916667 13.6228333,4.42916667 C12.4295,3.5775 11.1345,3.13416667 9.77116667,3.13416667 C8.03283333,3.13416667 6.60116667,3.71416667 5.47616667,4.8725 C4.35283333,6.03083333 3.77283333,7.4975 3.77283333,9.26916667 C3.77283333,11.0408333 4.35283333,12.5058333 5.47616667,13.6991667 C6.63616667,14.8908333 8.10116667,15.4708333 9.8395,15.4708333 C11.3728333,15.4708333 12.8378333,14.9591667 14.2361667,13.9041667 C14.4745,13.7325 14.7128333,13.6658333 14.9511667,13.6658333 C15.2578333,13.6658333 15.5311667,13.8358333 15.7695,14.2108333 L16.0411667,14.7208333 C16.1778333,14.9591667 16.2461667,15.1991667 16.2461667,15.4025 C16.2461667,15.7091667 16.0761667,15.9825 15.7345,16.2208333 C14.0311667,17.6191667 11.9861667,18.3341667 9.60116667,18.3341667 C6.9095,18.3341667 4.69283333,17.4825 2.95616667,15.7775 C1.25116667,14.0741667 0.3995,11.9258333 0.3995,9.3025 C0.3995,6.7475 1.25116667,4.59916667 2.9895,2.8625" id="Fill-1" fill="#1E3264" mask="url(#mask-2)"></path>
                        </g>
                        <path d="M47.4168333,34.6356667 C48.7785,34.6356667 49.9035,34.0556667 50.7568333,32.9306667 C51.6418333,31.8073333 52.0851667,30.5456667 52.0851667,29.149 L52.0851667,28.399 L51.1985,28.399 C46.5301667,28.399 44.2135,29.5573333 44.2135,31.874 C44.2135,33.374 45.4051667,34.6356667 47.4168333,34.6356667 M43.4301667,27.7523333 C44.1451667,27.3423333 45.0301667,27.0356667 46.0201667,26.7973333 C48.0301667,26.2873333 49.4268333,26.2173333 51.1651667,26.2173333 L52.0518333,26.2173333 L52.0518333,25.7756667 C52.0518333,23.254 50.7901667,21.9923333 48.3035,21.9923333 C47.0085,21.9923333 45.7118333,22.3673333 44.4168333,23.084 C44.1785,23.184 43.9751667,23.254 43.7701667,23.254 C43.3951667,23.254 43.1218333,23.049 42.8835,22.674 L42.6118333,22.1973333 C42.4751667,21.959 42.4068333,21.719 42.4068333,21.514 C42.4068333,21.1406667 42.6118333,20.8673333 42.9868333,20.664 C44.7251667,19.6756667 46.5651667,19.1973333 48.5751667,19.1973333 C52.9018333,19.1973333 55.3568333,21.584 55.3568333,25.9456667 L55.3568333,35.7256667 C55.3568333,36.4756667 54.9818333,36.8506667 54.2318333,36.8506667 L53.3801667,36.8506667 C52.6301667,36.8506667 52.2551667,36.4756667 52.2551667,35.7256667 L52.2551667,34.704 L52.3568333,33.6473333 L52.2901667,33.6473333 L52.0851667,34.0556667 C51.9151667,34.364 51.1651667,35.3506667 50.3818333,35.9973333 C49.5985,36.6456667 48.1668333,37.259 46.6668333,37.259 C45.0651667,37.259 43.7018333,36.7823333 42.5768333,35.8623333 C41.4518333,34.9423333 40.8735,33.6806667 40.8735,32.1473333 C40.8735,30.1023333 42.0318333,28.5356667 43.4301667,27.7523333" id="Fill-4" fill="#1E3264"></path>
                        <path d="M59.208,13.9155 C59.208,13.1655 59.583,12.7905 60.3313333,12.7905 L61.3896667,12.7905 C62.138,12.7905 62.513,13.1655 62.513,13.9155 L62.513,31.7388333 C62.513,33.1688333 63.0246667,33.9188333 64.0813333,34.0221667 C64.6596667,34.0888333 64.9663333,34.4305 64.9663333,35.0105 L64.9663333,35.8271667 C64.9663333,36.6121667 64.593,36.9871667 63.808,36.9871667 C60.7413333,36.9871667 59.208,35.3855 59.208,32.1471667 L59.208,13.9155 Z" id="Fill-6" fill="#1E3264"></path>
                        <path d="M67.4546667,20.731 C67.4546667,19.9826667 67.8296667,19.6076667 68.578,19.6076667 L69.533,19.6076667 C70.283,19.6076667 70.658,19.9826667 70.658,20.731 L70.658,22.2643333 L70.5563333,23.2526667 L70.623,23.2526667 C71.0663333,22.1976667 71.8496667,21.2426667 72.9746667,20.4243333 C74.0996667,19.6076667 75.3263333,19.1976667 76.6213333,19.1976667 C79.4496667,19.1976667 81.188,20.4926667 81.8013333,23.1176667 L81.8696667,23.1176667 C82.3813333,22.061 83.1646667,21.141 84.2896667,20.356 C85.4146667,19.5726667 86.6396667,19.1976667 87.9696667,19.1976667 C91.888,19.1976667 93.6596667,21.3443333 93.6596667,25.8093333 L93.6596667,35.726 C93.6596667,36.476 93.2863333,36.851 92.5363333,36.851 L91.4796667,36.851 C90.7296667,36.851 90.3546667,36.476 90.3546667,35.726 L90.3546667,26.526 C90.3546667,23.7643333 89.673,22.1976667 87.3213333,22.1976667 C85.788,22.1976667 84.5613333,22.8776667 83.608,24.2076667 C82.6863333,25.536 82.2113333,27.0693333 82.2113333,28.8076667 L82.2113333,35.726 C82.2113333,36.476 81.8363333,36.851 81.1196667,36.851 L80.0296667,36.851 C79.313,36.851 78.938,36.476 78.938,35.726 L78.938,26.526 C78.938,23.7976667 78.3596667,22.1976667 75.9396667,22.1976667 C74.4063333,22.1976667 73.1446667,22.8776667 72.1913333,24.2076667 C71.2363333,25.536 70.7596667,27.0693333 70.7596667,28.8076667 L70.7596667,35.726 C70.7596667,36.476 70.3846667,36.851 69.6363333,36.851 L68.578,36.851 C67.8296667,36.851 67.4546667,36.476 67.4546667,35.726 L67.4546667,20.731 Z" id="Fill-8" fill="#1E3264"></path>
                        <path d="M96.3166667,34.6008333 C96.3166667,34.3625 96.4183333,34.1241667 96.5883333,33.8525 L96.93,33.3741667 C97.1683333,33.0675 97.4416667,32.8975 97.7483333,32.8975 C97.9866667,32.8975 98.225,32.9658333 98.4983333,33.1358333 C99.9283333,34.0558333 101.326667,34.5325 102.723333,34.5325 C104.461667,34.5325 105.655,33.7158333 105.655,32.2491667 C105.655,31.0241667 104.256667,30.2058333 102.485,29.6258333 C99.9966667,28.7741667 96.725,27.5458333 96.76,24.1725 C96.76,22.6058333 97.3383333,21.3791667 98.5333333,20.5275 C99.725,19.6408333 101.225,19.1975 102.996667,19.1975 C104.768333,19.1975 106.37,19.6408333 107.768333,20.5275 C108.141667,20.7308333 108.346667,21.0041667 108.346667,21.3441667 C108.346667,21.5491667 108.278333,21.7891667 108.141667,22.0258333 L107.835,22.5375 C107.63,22.9125 107.358333,23.0825 106.983333,23.0825 C106.813333,23.0825 106.575,23.0141667 106.335,22.9125 C105.176667,22.2641667 104.018333,21.9241667 102.826667,21.9241667 C101.086667,21.9241667 99.9283333,22.7075 99.9283333,24.1058333 C99.9283333,25.3325 101.326667,26.1841667 103.065,26.7625 C105.62,27.6158333 108.823333,28.7408333 108.823333,32.1825 C108.823333,33.6475 108.243333,34.8741667 107.085,35.8275 C105.96,36.7825 104.461667,37.2591667 102.621667,37.2591667 C100.406667,37.2591667 98.4983333,36.6458333 96.8283333,35.3858333 C96.4883333,35.1808333 96.3166667,34.9075 96.3166667,34.6008333" id="Fill-10" fill="#1E3264"></path>
                        <g id="Group-14" transform="translate(110.000000, 18.925833)">
                            <mask id="mask-4" fill="white">
                                <use xlink:href="#path-3"></use>
                            </mask>
                            <g id="Clip-13"></g>
                            <path d="M13.4425,7.46216667 C13.3408333,4.49716667 11.6025,2.86216667 9.25083333,2.86216667 C6.69583333,2.86216667 4.65083333,4.6005 4.2075,7.46216667 L13.4425,7.46216667 Z M3.1175,2.7605 C4.7525,1.0905 6.8325,0.272166667 9.31916667,0.272166667 C11.6708333,0.272166667 13.4775,1.02216667 14.7725,2.5555 C16.1008333,4.0555 16.7475,6.0305 16.7475,8.48383333 C16.7475,9.13216667 16.2708333,9.64383333 15.5891667,9.64383333 L4.07083333,9.64383333 C4.17416667,11.4505 4.7875,12.8821667 5.9125,13.9371667 C7.03583333,14.9605 8.4325,15.4705 10.0358333,15.4705 C11.5691667,15.4705 12.9308333,15.0271667 14.1591667,14.1071667 C14.3975,13.9721667 14.6358333,13.9038333 14.8391667,13.9038333 C15.2141667,13.9038333 15.4875,14.1071667 15.6925,14.4821667 L15.9991667,14.9938333 C16.1691667,15.2321667 16.2375,15.4705 16.2375,15.6755 C16.2375,15.9821667 16.0325,16.2555 15.6591667,16.4938333 C13.9191667,17.7205 11.9775,18.3338333 9.83083333,18.3338333 C7.1375,18.3338333 4.9575,17.4821667 3.25416667,15.7771667 C1.54916667,14.0405 0.6975,11.8921667 0.6975,9.30383333 C0.6975,6.6105 1.51583333,4.4305 3.1175,2.7605 L3.1175,2.7605 Z" id="Fill-12" fill="#1E3264" mask="url(#mask-4)"></path>
                        </g>
                        <path d="M134.824833,34.6356667 C136.1865,34.6356667 137.3115,34.0556667 138.164833,32.9306667 C139.049833,31.8073333 139.493167,30.5456667 139.493167,29.149 L139.493167,28.399 L138.6065,28.399 C133.938167,28.399 131.6215,29.5573333 131.6215,31.874 C131.6215,33.374 132.813167,34.6356667 134.824833,34.6356667 M130.838167,27.7523333 C131.553167,27.3423333 132.438167,27.0356667 133.428167,26.7973333 C135.438167,26.2873333 136.834833,26.2173333 138.573167,26.2173333 L139.459833,26.2173333 L139.459833,25.7756667 C139.459833,23.254 138.198167,21.9923333 135.7115,21.9923333 C134.4165,21.9923333 133.119833,22.3673333 131.824833,23.084 C131.5865,23.184 131.383167,23.254 131.178167,23.254 C130.803167,23.254 130.529833,23.049 130.2915,22.674 L130.019833,22.1973333 C129.883167,21.959 129.814833,21.719 129.814833,21.514 C129.814833,21.1406667 130.019833,20.8673333 130.394833,20.664 C132.133167,19.6756667 133.973167,19.1973333 135.983167,19.1973333 C140.309833,19.1973333 142.764833,21.584 142.764833,25.9456667 L142.764833,35.7256667 C142.764833,36.4756667 142.389833,36.8506667 141.639833,36.8506667 L140.788167,36.8506667 C140.038167,36.8506667 139.663167,36.4756667 139.663167,35.7256667 L139.663167,34.704 L139.764833,33.6473333 L139.698167,33.6473333 L139.493167,34.0556667 C139.323167,34.364 138.573167,35.3506667 137.789833,35.9973333 C137.0065,36.6456667 135.574833,37.259 134.074833,37.259 C132.473167,37.259 131.109833,36.7823333 129.984833,35.8623333 C128.859833,34.9423333 128.2815,33.6806667 128.2815,32.1473333 C128.2815,30.1023333 129.439833,28.5356667 130.838167,27.7523333" id="Fill-15" fill="#1E3264"></path>
                        <g id="Group-19" transform="translate(143.333333, 13.925833)">
                            <mask id="mask-6" fill="white">
                                <use xlink:href="#path-5"></use>
                            </mask>
                            <g id="Clip-18"></g>
                            <path d="M3.89533333,8.54366667 L2.70366667,8.54366667 C1.987,8.54366667 1.612,8.16866667 1.612,7.41866667 L1.612,6.977 C1.612,6.227 1.987,5.852 2.737,5.852 L3.96366667,5.852 L3.96366667,2.06866667 C3.96366667,1.31866667 4.33866667,0.943666667 5.087,0.943666667 L6.077,0.943666667 C6.827,0.943666667 7.20033333,1.31866667 7.20033333,2.06866667 L7.20033333,5.852 L10.2003333,5.852 C10.9503333,5.852 11.3236667,6.227 11.3236667,6.977 L11.3236667,7.41866667 C11.3236667,8.16866667 10.9503333,8.54366667 10.2336667,8.54366667 L7.20033333,8.54366667 L7.20033333,16.212 C7.20033333,18.632 8.29033333,19.9253333 10.472,20.0953333 C11.392,20.1986667 11.6653333,20.437 11.6653333,21.2203333 L11.6653333,21.9353333 C11.6653333,22.6853333 11.222,23.0603333 10.302,23.0603333 C6.622,23.0603333 3.89533333,20.8453333 3.89533333,16.722 L3.89533333,8.54366667 Z" id="Fill-17" fill="#1E3264" mask="url(#mask-6)"></path>
                        </g>
                        <path d="M15.8725,23.1623333 L4.03083333,11.354 C3.16083333,10.484 2.65916667,9.28066667 2.65916667,8.04233333 C2.65916667,6.80566667 3.16083333,5.60066667 4.03083333,4.73066667 C4.90083333,3.86066667 6.10416667,3.359 7.3425,3.359 C8.58083333,3.359 9.78416667,3.86066667 10.6541667,4.73066667 L22.4958333,16.5723333 L21.5591667,17.509 L9.7175,5.66733333 C9.0825,5.03233333 8.24583333,4.69733333 7.3425,4.69733333 C6.43916667,4.69733333 5.6025,5.03233333 4.9675,5.66733333 C4.3325,6.30233333 3.9975,7.139 3.9975,8.04233333 C3.9975,8.94566667 4.3325,9.78233333 4.9675,10.4173333 L16.8091667,22.259 L15.8725,23.1623333 Z" id="Fill-20" fill="#1E3264"></path>
                        <path d="M17.7456667,21.2556667 L5.93733333,9.44733333 C5.16733333,8.67733333 5.16733333,7.40733333 5.93733333,6.604 C6.70733333,5.834 7.97733333,5.834 8.78066667,6.604 L20.6223333,18.4456667 L19.6523333,19.3823333 L7.81066667,7.54066667 C7.54233333,7.274 7.14233333,7.274 6.874,7.54066667 C6.60566667,7.809 6.60566667,8.209 6.874,8.47733333 L18.6823333,20.319 L17.7456667,21.2556667 Z" id="Fill-22" fill="#1E3264"></path>
                        <g id="Group-26" transform="translate(0.000000, 0.592500)" fill="#1E3264">
                            <path d="M24.8373333,11.6983333 L23.4323333,13.1033333 L22.4956667,12.1666667 L23.9006667,10.7616667 C24.7706667,9.89166667 25.2723333,8.68833333 25.2723333,7.45 C25.2723333,6.21166667 24.7706667,5.04166667 23.9006667,4.13833333 C22.0606667,2.29833333 19.1173333,2.29833333 17.2773333,4.13833333 L15.8723333,5.54333333 L14.9356667,4.60666667 L16.3406667,3.20166667 C18.6823333,0.86 22.4956667,0.86 24.8706667,3.20166667 C27.179,5.51 27.179,9.35666667 24.8373333,11.6983333 L24.8373333,11.6983333 Z M20.589,10.26 L21.994,8.855 C22.3623333,8.48666667 22.5956667,7.985 22.5956667,7.45 C22.5956667,6.915 22.3956667,6.41333333 21.994,6.045 C21.5923333,5.67666667 21.124,5.44333333 20.589,5.44333333 C20.054,5.44333333 19.5523333,5.64333333 19.184,6.045 L17.779,7.45 L16.8423333,6.51333333 L18.2473333,5.10833333 C19.5523333,3.80333333 21.659,3.80333333 22.964,5.10833333 C23.599,5.74333333 23.934,6.58 23.934,7.48333333 C23.934,8.38666667 23.599,9.22333333 22.964,9.85833333 L21.559,11.2633333 L20.589,10.26 Z M18.6823333,8.38666667 L20.0873333,6.98166667 C20.3556667,6.71333333 20.789,6.71333333 21.024,6.98166667 C21.1573333,7.115 21.224,7.28333333 21.224,7.45 C21.224,7.61666667 21.1573333,7.785 21.024,7.91833333 L19.6523333,9.32333333 L18.6823333,8.38666667 Z M25.8073333,2.23166667 C22.9306667,-0.645 18.2806667,-0.645 15.404,2.23166667 L13.9656667,3.63666667 L12.5606667,2.23166667 C9.684,-0.645 5.034,-0.645 2.15733333,2.23166667 C-0.719333333,5.10833333 -0.719333333,9.75833333 2.15733333,12.635 L13.9656667,24.4766667 L14.9023333,23.54 L3.094,11.6983333 C0.752333333,9.35666667 0.752333333,5.54333333 3.094,3.16833333 C5.43566667,0.826666667 9.249,0.826666667 11.624,3.16833333 L23.4656667,15.01 L23.934,14.5416667 L24.4023333,14.0733333 L25.8073333,12.6683333 C28.6506667,9.75833333 28.6506667,5.10833333 25.8073333,2.23166667 L25.8073333,2.23166667 Z" id="Fill-24"></path>
                        </g>
                    </g>
                </g>
            </g>
        </g>
    </g>
</svg>