<?xml version="1.0" encoding="UTF-8"?>
<svg width="40px" height="23px" viewBox="0 0 40 23" version="1.1" xmlns="http://www.w3.org/2000/svg" xmlns:xlink="http://www.w3.org/1999/xlink">
    <!-- Generator: Sketch 51.1 (57501) - http://www.bohemiancoding.com/sketch -->
    <title>Page 1</title>
    <desc>Created with Sketch.</desc>
    <defs></defs>
    <g id="Page-1" stroke="none" stroke-width="1" fill="none" fill-rule="evenodd">
        <g id="O-Consultancy" transform="translate(-800.000000, -2593.000000)" fill="#1279FD">
            <g id="Services-List" transform="translate(800.000000, 2299.000000)">
                <g id="Page-1" transform="translate(0.000000, 294.000000)">
                    <path d="M36.7709091,18.513206 L29.5735855,11.400226 L36.7709091,4.288166 L36.7709091,18.513206 Z M2.79272727,20.240046 L26.5309091,20.240046 L26.5309091,2.760046 L2.79272727,2.760046 L2.79272727,20.240046 Z M37.86752,0.052486 C37.5202909,0.052486 36.99712,0.161046 36.4753455,0.676706 L29.3236364,7.744606 L29.3236364,2.300046 C29.3236364,1.031826 28.2796218,4.6e-05 26.9963636,4.6e-05 L2.32727273,4.6e-05 C1.04401455,4.6e-05 0,1.031826 0,2.300046 L0,20.700046 C0,21.968266 1.04401455,23.000046 2.32727273,23.000046 L26.9963636,23.000046 C28.2796218,23.000046 29.3236364,21.968266 29.3236364,20.700046 L29.3236364,15.055846 L36.4758109,22.124666 C36.9980509,22.640326 37.5212218,22.748426 37.8679855,22.748426 C38.7104582,22.748426 39.5636364,22.099826 39.5636364,20.860126 L39.5636364,1.941246 C39.5636364,0.701086 38.7104582,0.052486 37.86752,0.052486 Z" id="Fill-1"></path>
                </g>
            </g>
        </g>
    </g>
</svg>