<?xml version="1.0" encoding="UTF-8"?>
<svg width="39px" height="30px" viewBox="0 0 39 30" version="1.1" xmlns="http://www.w3.org/2000/svg" xmlns:xlink="http://www.w3.org/1999/xlink">
    <!-- Generator: Sketch 51.1 (57501) - http://www.bohemiancoding.com/sketch -->
    <title>Fill 1</title>
    <desc>Created with Sketch.</desc>
    <defs/>
    <g id="Page-1" stroke="none" stroke-width="1" fill="none" fill-rule="evenodd">
        <g id="O-Consultancy" transform="translate(-800.000000, -2299.000000)" fill="#1279FD">
            <g id="Services-List" transform="translate(800.000000, 2299.000000)">
                <path d="M29.2476453,19.7076501 L5.6030506,19.7076501 L2.72267659,5.52051418 L32.1271481,5.52051418 L29.2476453,19.7076501 Z M37.5999459,0.00338737031 C35.5424736,0.144841461 33.7603184,1.33781269 32.903002,3.0390172 C32.8258958,3.03150636 32.7509678,3.01690195 32.672119,3.01690195 L2.17814127,3.01690195 C0.977114174,3.01690195 0,3.95283566 0,5.10324548 C0,5.18336107 0.00827693683,5.26347666 0.0243951822,5.34234044 L3.05506095,20.2717974 C3.13347403,21.3537752 4.07791609,22.2112624 5.22753905,22.2112624 L29.6227213,22.2112624 C30.7723442,22.2112624 31.7167863,21.3537752 31.795635,20.2717974 L34.6119717,6.39928207 L35.020591,4.80114293 C35.0249472,4.78653853 35.0284323,4.77193413 35.0306104,4.75691245 C35.2976505,3.52179709 36.4307196,2.59379149 37.787266,2.50074057 C38.5064883,2.45108559 39.0484098,1.852305 38.99657,1.16255983 C38.9456015,0.472814663 38.3196037,-0.0471021429 37.5999459,0.00338737031 Z M23.959554,13.8658883 L10.4550781,13.8658883 C9.73324208,13.8658883 9.14819333,14.4262801 9.14819333,15.1176944 C9.14819333,15.8091086 9.73324208,16.3695005 10.4550781,16.3695005 L23.959554,16.3695005 C24.6818256,16.3695005 25.2664387,15.8091086 25.2664387,15.1176944 C25.2664387,14.4262801 24.6818256,13.8658883 23.959554,13.8658883 Z M9.14819333,10.9450073 L25.2664387,10.9450073 C25.9887104,10.9450073 26.5733235,10.3846155 26.5733235,9.69320123 C26.5733235,9.00178698 25.9887104,8.44139511 25.2664387,8.44139511 L9.14819333,8.44139511 C8.42635732,8.44139511 7.84130857,9.00178698 7.84130857,9.69320123 C7.84130857,10.3846155 8.42635732,10.9450073 9.14819333,10.9450073 Z M8.0591227,23.6717028 C6.23471157,23.6717028 4.75575365,25.0887473 4.75575365,26.8358514 C4.75575365,28.5833727 6.23471157,30 8.0591227,30 C9.88353383,30 11.3624917,28.5833727 11.3624917,26.8358514 C11.3624917,25.0887473 9.88353383,23.6717028 8.0591227,23.6717028 Z M26.7911376,23.6717028 C24.9667265,23.6717028 23.4877686,25.0887473 23.4877686,26.8358514 C23.4877686,28.5833727 24.9667265,30 26.7911376,30 C28.6159844,30 30.0945067,28.5833727 30.0945067,26.8358514 C30.0945067,25.0887473 28.6159844,23.6717028 26.7911376,23.6717028 Z" id="Fill-1"/>
            </g>
        </g>
    </g>
</svg>